<svg width="119" height="110" xmlns="http://www.w3.org/2000/svg" xmlns:xlink="http://www.w3.org/1999/xlink" xml:space="preserve" overflow="hidden"><g transform="translate(-99 -810)"><path d="M53.9688 22.5729C51.3333 22.5729 49.1563 24.75 49.1563 27.3854 49.1563 30.0208 51.3333 32.1979 53.9688 32.1979 56.6042 32.1979 58.7812 30.0208 58.7812 27.3854 58.7812 24.75 56.6042 22.5729 53.9688 22.5729Z" stroke="#404040" stroke-width="1.05917" fill="none" transform="matrix(1.08182 0 0 1 99 810)"/><path d="M44.3438 50.6458C44.3438 53.3037 42.1891 55.4583 39.5312 55.4583 36.8734 55.4583 34.7188 53.3037 34.7188 50.6458 34.7188 47.988 36.8734 45.8333 39.5312 45.8333 42.1891 45.8333 44.3438 47.988 44.3438 50.6458Z" stroke="#404040" stroke-width="1.05917" fill="none" transform="matrix(1.08182 0 0 1 99 810)"/><path d="M67.6042 28.9896 64.7396 30.3646C64.5104 31.2812 64.0521 32.0833 63.5938 32.8854L64.625 35.8646 62.3333 38.1562 59.3542 37.125C58.5521 37.5833 57.75 37.9271 56.8333 38.1562L55.4583 40.9063 52.25 40.9063 50.875 38.0417C49.9583 37.8125 49.1563 37.4688 48.3542 37.0104L45.375 38.0417 43.0833 35.75 44.1146 32.7708C43.6562 31.9688 43.3125 31.1667 43.0833 30.25L40.2188 28.875 40.2188 25.6667 43.0833 24.2917C43.3125 23.375 43.6562 22.5729 44.1146 21.7708L43.1979 18.7917 45.4896 16.5 48.4688 17.5312C49.2708 17.0729 50.0729 16.7292 50.9896 16.5L52.3646 13.6354 55.5729 13.6354 56.9479 16.3854C57.8646 16.6146 58.6667 16.9583 59.4688 17.4167L62.4479 16.3854 64.7396 18.6771 63.7083 21.6562C64.1667 22.4583 64.5104 23.2604 64.7396 24.1771L67.6042 25.5521 67.6042 28.9896ZM53.1667 52.25 50.3021 53.625C50.0729 54.5417 49.7292 55.3438 49.2708 56.1458L50.1875 59.125 47.8958 61.4167 44.9167 60.3854C44.1146 60.8438 43.3125 61.1875 42.3958 61.4167L41.1354 64.1667 37.9271 64.1667 36.5521 61.3021C35.6354 61.0729 34.8333 60.7292 34.0313 60.2708L31.0521 61.1875 28.7604 58.8958 29.7917 55.9167C29.3333 55.1146 28.9896 54.3125 28.7604 53.3958L25.8958 52.0208 25.8958 48.8125 28.7604 47.4375C28.9896 46.5208 29.3333 45.7188 29.7917 44.9167L28.7604 41.9375 31.0521 39.6458 34.0313 40.6771C34.8333 40.2188 35.6354 39.875 36.5521 39.6458L37.9271 36.7812 41.25 36.7812 42.625 39.6458C43.5417 39.875 44.3438 40.2188 45.1458 40.6771L48.125 39.6458 50.4167 41.9375 49.3854 44.9167C49.8438 45.7188 50.1875 46.5208 50.4167 47.4375L53.2812 48.8125 53.1667 52.25 53.1667 52.25ZM92.8125 56.4896 84.9062 42.7396 84.9062 42.1667C85.3646 29.5625 78.9479 17.7604 68.0625 11.2292 57.1771 4.8125 43.7708 4.8125 32.8854 11.2292 22 17.6458 15.5833 29.5625 16.0417 42.1667 16.0417 53.0521 20.9688 63.25 29.5625 69.8958L29.5625 98.8854 65.7708 98.8854 65.7708 85.1354 71.3854 85.1354C75.0521 85.1354 78.4896 83.6458 81.0104 81.125 83.5313 78.4896 84.9062 75.0521 84.9062 71.3854L84.9062 64.5104 89.9479 64.5104C92.9271 64.1667 95.5625 60.7292 92.8125 56.4896Z" stroke="#404040" stroke-width="1.05917" fill="none" transform="matrix(1.08182 0 0 1 99 810)"/></g></svg>