<svg width="104" height="104" xmlns="http://www.w3.org/2000/svg" xmlns:xlink="http://www.w3.org/1999/xlink" xml:space="preserve" overflow="hidden"><g transform="translate(-98 -616)"><path d="M115.875 705.7C115.117 706.458 114.142 706.675 113.167 706.242 112.192 705.808 111.65 704.942 111.65 703.967 111.65 702.992 112.3 702.017 113.167 701.692 114.142 701.258 115.117 701.475 115.875 702.233 116.85 703.1 116.85 704.725 115.875 705.7ZM192.358 634.308 183.583 643.083 176.65 641.242 174.917 634.417 183.692 625.642C178.492 623.692 172.642 624.883 168.525 628.567 164.408 632.358 162.783 637.992 164.192 643.408L108.942 698.658C106.992 700.5 106.233 703.317 106.883 705.917 107.533 708.517 109.592 710.575 112.192 711.225 114.792 711.875 117.5 711.117 119.45 709.167L174.7 653.917C180.117 655.325 185.75 653.7 189.542 649.583 193.225 645.467 194.417 639.508 192.358 634.308Z" stroke="#404040" stroke-width="1.08333" fill="none"/><path d="M191.925 698.658 163.975 670.708 152.708 681.975 179.792 709.058 180.767 710.033 180.875 709.925C184.017 712.2 188.35 711.767 191.058 709.058 193.767 706.242 194.092 701.908 191.925 698.658L191.925 698.658Z" stroke="#404040" stroke-width="1.08333" fill="none"/><path d="M122.483 637.45 122.592 637.342 119.775 632.142 110.458 624.667 106.667 628.458 114.142 637.775 119.342 640.592 119.45 640.483 140.142 661.175 143.175 658.142Z" stroke="#404040" stroke-width="1.08333" fill="none"/></g></svg>